Coordinates
version=1
nRows=20
nColumns=38
inDegrees=no

Units are S.I. units (second, meters, Newtons, ...)
If the header above contains a line with 'inDegrees', this indicates whether rotational values are in degrees (yes) or radians (no).

endheader
time	pelvis_tilt	pelvis_list	pelvis_rotation	pelvis_tx	pelvis_ty	pelvis_tz	hip_flexion_r	hip_adduction_r	hip_rotation_r	knee_angle_r	ankle_angle_r	subtalar_angle_r	mtp_angle_r	hip_flexion_l	hip_adduction_l	hip_rotation_l	knee_angle_l	ankle_angle_l	subtalar_angle_l	mtp_angle_l	lumbar_extension	lumbar_bending	lumbar_rotation	arm_flex_r	arm_add_r	arm_rot_r	elbow_flex_r	pro_sup_r	wrist_flex_r	wrist_dev_r	arm_flex_l	arm_add_l	arm_rot_l	elbow_flex_l	pro_sup_l	wrist_flex_l	wrist_dev_l
2.15	-0.235854	1.31335	-1.18868	0.75811	-0.350077	0.954995	-0.142891	0.0700325	-0.334169	0.233918	-0.212661	0	0	-0.0900747	-0.277459	-0.18424	1.31557	-0.0921079	0	0	-0.402746	0.0919582	-0.216898	-0.0736832	-0.403105	0.462872	0.732437	0.978334	0	0	-0.283854	-0.336115	-0.118596	1.05862	1.5708	0	0
2.16	-0.251358	1.30463	-1.18666	0.755841	-0.360873	0.955283	-0.17305	0.0833707	-0.317022	0.20954	-0.211986	0	0	-0.0787683	-0.346153	-0.306143	1.33984	-0.125744	0	0	-0.408817	0.0940366	-0.205586	-0.0790848	-0.415025	0.471086	0.751321	0.967961	0	0	-0.298707	-0.331049	-0.119497	1.065	1.5708	0	0
2.17	-0.240644	1.30501	-1.20422	0.753784	-0.370205	0.956207	-0.191005	0.0851039	-0.308879	0.195135	-0.211828	0	0	-0.0564881	-0.34067	-0.305826	1.34175	-0.126365	0	0	-0.410921	0.0881713	-0.20113	-0.0776099	-0.41673	0.476564	0.754385	0.961893	0	0	-0.304302	-0.328932	-0.117137	1.06231	1.5708	0	0
2.18	-0.207037	1.31679	-1.23688	0.752063	-0.377968	0.957506	-0.196198	0.0776996	-0.303165	0.182753	-0.213568	0	0	-0.0192119	-0.258993	-0.180452	1.32238	-0.0863028	0	0	-0.405189	0.074547	-0.20537	-0.064523	-0.409461	0.492669	0.736719	0.950886	0	0	-0.301492	-0.331564	-0.108512	1.04897	1.5708	0	0
2.19	-0.224654	1.30711	-1.23394	0.749895	-0.388752	0.957573	-0.226077	0.0889962	-0.291009	0.162167	-0.216201	0	0	-0.0124907	-0.330886	-0.311528	1.33254	-0.122871	0	0	-0.41606	0.0761759	-0.180031	-0.112572	-0.374023	0.333546	0.757241	1.12418	0	0	-0.30659	-0.333175	-0.0937548	1.05582	1.5708	0	0
2.2	-0.15709	1.35511	-1.31013	0.746722	-0.397154	0.953583	-0.163787	0.0591986	-0.267391	0.188539	-0.202909	0	0	0.0593177	-0.229127	-0.193669	1.3159	-0.070185	0	0	-0.365855	0.0389222	-0.192288	-0.0626508	-0.417212	0.533362	0.740513	0.907048	0	0	-0.323051	-0.336745	-0.0960166	1.0463	1.5708	0	0
2.21	-0.202197	1.30224	-1.26975	0.746512	-0.406928	0.958789	-0.267863	0.0907145	-0.279303	0.133159	-0.217053	0	0	0.0179472	-0.321512	-0.32865	1.30473	-0.116407	0	0	-0.421844	0.0660479	-0.179386	-0.068904	-0.430751	0.515788	0.76867	0.916459	0	0	-0.324132	-0.329985	-0.0925318	1.05166	1.5708	0	0
2.22	-0.192173	1.30189	-1.28578	0.745003	-0.416094	0.959126	-0.285187	0.0902839	-0.276638	0.122381	-0.215082	0	0	0.0340285	-0.315495	-0.338879	1.28562	-0.111033	0	0	-0.424254	0.0601416	-0.174656	-0.0693582	-0.429097	0.511022	0.769685	0.922369	0	0	-0.328452	-0.328814	-0.0895809	1.04963	1.5708	0	0
2.23	-0.165136	1.30953	-1.31187	0.743805	-0.423918	0.959616	-0.292406	0.084331	-0.275086	0.114375	-0.214113	0	0	0.0635948	-0.249923	-0.246967	1.24804	-0.080301	0	0	-0.421934	0.0494545	-0.175631	-0.064718	-0.420156	0.505717	0.759351	0.927833	0	0	-0.325491	-0.331056	-0.0826265	1.04045	1.5708	0	0
2.24	-0.167826	1.29624	-1.32154	0.742145	-0.43416	0.959765	-0.326823	0.0894775	-0.265812	0.0959221	-0.216219	0	0	0.0561034	-0.302053	-0.364472	1.23578	-0.108644	0	0	-0.435353	0.0478175	-0.162409	-0.0753654	-0.42471	0.489022	0.777183	0.93879	0	0	-0.335656	-0.329243	-0.081968	1.04795	1.5708	0	0
2.25	-0.152363	1.29761	-1.33973	0.740922	-0.442794	0.959922	-0.340556	0.086903	-0.264078	0.0882951	-0.212206	0	0	0.0738314	-0.272129	-0.336575	1.19925	-0.0976636	0	0	-0.437218	0.0405504	-0.160111	-0.0747456	-0.419092	0.479605	0.774308	0.949801	0	0	-0.336852	-0.328086	-0.0820386	1.04446	1.5708	0	0
2.26	-0.145507	1.29179	-1.35319	0.73967	-0.452107	0.959949	-0.363066	0.0870813	-0.260417	0.0785236	-0.211469	0	0	0.0754774	-0.280273	-0.380936	1.16748	-0.10547	0	0	-0.444118	0.0361857	-0.154915	-0.0729816	-0.423547	0.487624	0.779951	0.938466	0	0	-0.342401	-0.325044	-0.0850454	1.04547	1.5708	0	0
2.27	-0.138127	1.28822	-1.36444	0.738613	-0.461147	0.959772	-0.381949	0.086929	-0.258931	0.0710445	-0.209708	0	0	0.0805704	-0.277921	-0.405716	1.12935	-0.110957	0	0	-0.449061	0.031658	-0.151239	-0.0709169	-0.425632	0.493497	0.782422	0.928767	0	0	-0.346579	-0.324127	-0.0850338	1.04456	1.5708	0	0
2.28	-0.132935	1.28712	-1.37243	0.737638	-0.470132	0.959371	-0.397904	0.0872564	-0.255955	0.0632111	-0.207033	0	0	0.0883523	-0.27093	-0.421408	1.08588	-0.118086	0	0	-0.455253	0.0268391	-0.136623	-0.109495	-0.379348	0.341	0.782747	1.09306	0	0	-0.341143	-0.329515	-0.070387	1.0428	1.5708	0	0
2.29	-0.129201	1.283	-1.3779	0.736856	-0.478921	0.958863	-0.416559	0.0887641	-0.253814	0.056357	-0.202838	0	0	0.0919474	-0.264877	-0.437808	1.03924	-0.126625	0	0	-0.45742	0.024649	-0.147066	-0.058165	-0.434875	0.529967	0.784567	0.8798	0	0	-0.354565	-0.322836	-0.0865279	1.04297	1.5708	0	0
2.3	-0.129853	1.2831	-1.37842	0.736184	-0.487953	0.957991	-0.430247	0.0906489	-0.251478	0.050926	-0.198622	0	0	0.0991287	-0.258765	-0.454001	0.990114	-0.134779	0	0	-0.45863	0.0225317	-0.144909	-0.0583696	-0.431878	0.523774	0.783598	0.883866	0	0	-0.35706	-0.321291	-0.0878592	1.04095	1.5708	0	0
2.31	-0.131835	1.28418	-1.37688	0.735627	-0.49702	0.956904	-0.442967	0.092657	-0.248858	0.0450282	-0.194112	0	0	0.106494	-0.252577	-0.470472	0.939604	-0.144135	0	0	-0.458488	0.020844	-0.143437	-0.058594	-0.428328	0.517172	0.781922	0.888407	0	0	-0.35931	-0.319768	-0.0892445	1.03822	1.5708	0	0
2.32	-0.134698	1.28582	-1.37371	0.735185	-0.506122	0.955668	-0.455092	0.0950296	-0.246247	0.0392723	-0.189358	0	0	0.113678	-0.245737	-0.486852	0.887849	-0.153072	0	0	-0.457784	0.0194287	-0.142608	-0.0586917	-0.424202	0.510296	0.779578	0.893843	0	0	-0.361605	-0.318529	-0.0907198	1.03523	1.5708	0	0
2.33	-0.138192	1.28769	-1.36943	0.734838	-0.515169	0.954337	-0.466462	0.0975397	-0.242181	0.0346951	-0.18444	0	0	0.12025	-0.238447	-0.5029	0.835981	-0.159654	0	0	-0.457178	0.0183132	-0.142171	-0.0583315	-0.419813	0.50342	0.776808	0.900124	0	0	-0.363413	-0.317079	-0.0926383	1.03192	1.5708	0	0
2.34	-0.141776	1.29011	-1.36408	0.734645	-0.524199	0.952858	-0.477325	0.100454	-0.242506	0.0296159	-0.18253	0	0	0.126626	-0.230186	-0.517166	0.783774	-0.160595	0	0	-0.455693	0.0176882	-0.141895	-0.0574294	-0.417718	0.50185	0.775246	0.897693	0	0	-0.36408	-0.316018	-0.0930794	1.02748	1.5708	0	0
